<svg width="158" height="46" viewBox="0 0 158 46" fill="none" xmlns="http://www.w3.org/2000/svg">
    <g clip-path="url(#clip0_1_8)">
        <path d="M157.105 3.33871L156.879 4.52581C155.222 4.6742 153.866 5.11936 153.038 5.71291C151.401 6.97741 150.258 8.75934 149.8 10.7581L144.151 29.529C143.066 34.2411 140.543 38.513 136.921 41.771C133.618 44.1818 129.581 45.4118 125.473 45.2581C123.09 45.2943 120.719 44.9176 118.469 44.1452C116.435 43.4032 115.004 42.5871 114.025 41.6968L113.799 41.3258H102.126L96.1007 21.4419L95.0463 21.5903L93.9919 21.5161L90.2262 33.9065C89.6237 35.6129 89.3977 36.8742 89.3977 37.6903C89.3977 38.4323 89.699 39.1 90.3768 39.5452C90.9793 39.9903 92.335 40.2871 94.3684 40.2871L93.9919 41.3258H73.4312L73.8077 40.2871C75.8412 40.2871 77.3475 39.9903 78.3266 39.1742C79.3056 38.4323 80.1341 36.7258 80.9626 34.0548L88.8705 7.86452C89.3224 6.38065 89.5483 5.19355 89.5483 4.37742C89.5483 3.56129 89.2471 2.89355 88.7199 2.52258C88.1927 2.07742 86.9124 1.78065 84.9542 1.63226L85.2554 0.370972H102.879C107.925 0.370972 111.465 1.26129 113.574 2.96775C113.649 3.11613 113.799 3.33871 113.95 3.33871H135.038L134.661 4.52581C132.998 4.45016 131.356 4.9198 129.992 5.86129C128.862 6.67742 127.958 8.30968 127.281 10.8323L121.783 28.6387C121.003 30.9917 120.547 33.4372 120.427 35.9097C120.427 37.5419 121.18 38.9516 122.536 40.2129C124.159 41.5349 126.233 42.1982 128.335 42.0677C130.213 42.2026 132.095 41.8567 133.797 41.0637C135.499 40.2707 136.965 39.0575 138.051 37.5419C139.406 35.6129 140.611 32.8677 141.741 29.3807L147.314 10.8323C147.615 9.71936 147.766 8.82904 147.766 8.16129C147.766 6.9 147.314 5.93549 146.41 5.19355C145.733 4.82259 144.377 4.52581 142.343 4.52581L142.72 3.33871H157.105ZM96.2513 19.7355C99.2639 19.7355 101.825 18.771 103.783 16.7677C105.741 14.7645 106.795 12.0936 106.795 8.82904C106.795 6.9 106.193 5.41613 105.214 4.37742C104.648 3.86351 103.983 3.46722 103.258 3.21227C102.534 2.95731 101.764 2.84891 100.996 2.89355L99.4898 2.96775L94.3684 19.6613L96.2513 19.7355ZM117.791 10.8323C118.182 9.65257 118.434 8.43287 118.544 7.19678C118.544 6.45484 118.243 5.86129 117.64 5.41613C117.189 5.11936 116.36 4.89678 115.08 4.6742C116.134 6.15807 116.586 7.79033 116.586 9.64517C116.586 12.3903 115.456 14.9129 113.046 17.2129C110.677 19.0156 107.921 20.2593 104.988 20.8484L108.829 33.2387C109.883 36.5032 110.787 38.5065 111.54 39.1742C111.841 39.471 112.143 39.6936 112.594 39.8419L111.841 38.3581C111.389 37.0226 111.088 35.9097 111.088 35.0194C111.088 33.5355 111.54 31.4581 112.368 28.7129L117.791 10.8323Z"
              fill="#651213"/>
        <path d="M108.829 33.3873L104.988 20.997C108.754 19.9582 111.541 18.7712 113.047 17.2873C114.135 16.3349 115.012 15.1708 115.621 13.8684C116.23 12.566 116.559 11.1533 116.587 9.71954C116.647 7.94527 116.118 6.20007 115.08 4.74857C115.98 4.80418 116.855 5.05771 117.641 5.49051C118.244 5.86148 118.545 6.45503 118.545 7.27115C118.545 8.01309 118.319 9.27438 117.792 10.8324L112.369 28.9357C111.66 30.9981 111.23 33.1434 111.089 35.3163C111.168 37.0236 111.686 38.683 112.595 40.1389C112.143 39.9905 111.842 39.7679 111.541 39.5453C110.25 37.7342 109.329 35.6931 108.829 33.5357V33.3873ZM99.4151 2.96793H100.921C102.443 2.92941 103.923 3.45954 105.064 4.4518C106.118 5.49051 106.57 6.97438 106.57 8.90341C106.57 12.1679 105.666 14.8389 103.633 16.8421C101.675 18.8453 99.1138 19.8099 96.1013 19.8099H94.2184L99.4151 2.96793ZM85.0301 0.371155L84.7289 1.63244C86.7623 1.78083 88.0427 2.07761 88.4946 2.52277C88.7856 2.73749 89.0197 3.01823 89.1771 3.34114C89.3344 3.66406 89.4103 4.01961 89.3983 4.37761C89.3983 5.26793 89.1724 6.38083 88.7205 7.8647L80.7372 34.2776C79.9841 36.9486 79.0803 38.7292 78.1012 39.4711C77.1975 40.2131 75.6912 40.5099 73.5824 40.5099L73.2058 41.5486H93.8419L94.2937 40.5099C92.1849 40.5099 90.8293 40.2873 90.2268 39.7679C89.9278 39.5731 89.682 39.3087 89.5113 38.9982C89.3405 38.6876 89.25 38.3404 89.2477 37.9873C89.2477 37.097 89.4736 35.8357 90.0008 34.055L93.8419 21.6647H94.8962L95.9506 21.5163L101.976 41.5486H113.725C113.875 41.5486 113.951 41.8453 114.026 41.9195C115.005 42.8099 116.436 43.7002 118.545 44.4421C120.772 45.206 123.116 45.5826 125.474 45.555C130.143 45.555 134.06 44.3679 137.072 42.0679C140.703 38.7872 143.227 34.4887 144.302 29.7518L149.951 10.8324C150.704 8.45825 151.758 6.82599 153.189 5.78728C154.093 5.11954 155.449 4.67438 157.03 4.52599L157.332 3.41309H142.871L142.495 4.60019C144.528 4.60019 145.884 4.82277 146.562 5.34212C147.465 5.93567 147.917 6.90019 147.917 8.16148C147.917 8.90341 147.767 9.79373 147.465 10.8324L141.892 29.5292C141.086 32.4529 139.815 35.2324 138.126 37.7647C137.123 39.181 135.777 40.3286 134.21 41.1034C132.553 41.8453 130.67 42.2905 128.411 42.2905C125.926 42.2905 123.892 41.697 122.536 40.4357C121.9 39.9071 121.389 39.2483 121.038 38.5051C120.687 37.7619 120.504 36.9522 120.503 36.1324C120.503 34.2776 120.955 31.9034 121.859 28.8615L127.281 10.8324C128.034 8.38406 128.938 6.7518 130.068 5.86148C131.439 4.94103 133.082 4.49719 134.737 4.60019L135.114 3.41309H113.951C113.8 3.41309 113.649 3.11632 113.499 2.96793C111.465 1.26148 107.85 0.371155 102.804 0.371155H85.0301Z"
              fill="url(#paint0_linear_1_8)"/>
        <path d="M48.201 38.2839C48.201 37.4678 48.5022 36.2065 48.9541 34.5742L56.8621 8.01293C57.1306 6.91529 57.509 5.84662 57.9918 4.82261L58.2177 4.8968C58.8955 5.41616 59.1968 6.00971 59.1968 6.75164C59.1968 7.49358 58.8202 9.27422 57.9918 12.0194L50.8369 36.1323C50.3097 37.9871 49.8579 39.3968 49.406 40.2871L49.1047 40.0646C48.8241 39.8572 48.5964 39.5884 48.4395 39.2793C48.2826 38.9703 48.201 38.6295 48.201 38.2839ZM49.7072 0.44519L29.5231 28.9355L26.4352 0.44519H11.2971L10.9205 1.4839C12.5021 1.4839 13.7071 1.70648 14.385 1.92906C15.1381 2.22584 15.8913 2.89358 16.795 3.7839L7.5314 34.5C7.00507 36.5874 5.78566 38.4415 4.06696 39.7678C2.96897 40.5275 1.64007 40.8941 0.301256 40.8065L0 41.9194H14.0084L14.3097 40.8065C12.5774 40.8065 11.3724 40.4355 10.6193 39.7678C9.86613 39.1742 9.56488 38.3581 9.56488 37.3194C9.56488 36.5775 9.7155 35.6871 10.0921 34.5L18.0754 6.97422L21.9164 41.8452H23.3473L47.6738 7.64197L39.6905 34.5C38.9373 37.0226 37.9583 38.7291 36.9039 39.5452C35.8495 40.4355 34.1172 40.8065 31.8578 40.8065L31.4812 41.9194H48.3516C48.0503 41.9194 47.7491 42.4387 47.3725 42.6613C46.544 42.9581 45.2637 43.1807 43.6068 43.1807L43.3055 44.2936H63.9416L64.2428 43.2549C62.5106 43.2549 61.2303 42.9581 60.5524 42.4387C59.7993 41.9194 59.4981 41.2517 59.4981 40.3613C59.4981 39.6194 59.7993 38.4323 60.2512 36.7258L64.77 21.5904L69.2889 35.6871C69.8914 37.6904 70.1926 39.1742 70.1926 40.1387C70.2014 40.911 69.9042 41.6563 69.3642 42.2162C68.7617 42.8097 67.8579 43.1065 66.6529 43.2549L66.2763 44.2936H84.6529L85.0295 43.2549C83.5232 43.1065 82.3935 42.6613 81.4897 41.771C79.763 39.0189 78.4919 36.0135 77.724 32.8678L72.7533 17.5839L79.4563 11.6484L82.3935 9.05164C84.7244 7.29111 87.2511 5.79763 89.9249 4.60003C90.678 4.37745 91.6571 4.08068 92.9375 4.00648L93.2387 2.81938H77.1968L76.8956 4.00648C78.0253 4.15487 78.7784 4.45164 79.155 4.8968C79.6822 5.34197 79.9081 5.93551 79.9081 6.52906C79.8991 7.11237 79.7157 7.68011 79.381 8.16132C79.155 8.53229 77.8747 9.64519 75.7659 11.6484L64.77 21.5904L67.632 11.6484C68.0118 10.0457 68.5413 8.48096 69.2136 6.97422C69.7418 6.02045 70.5226 5.22559 71.473 4.67422C72.2261 4.22906 73.2805 4.00648 74.6362 4.00648L74.9374 2.81938H59.5734C60.9391 1.88828 62.5861 1.44341 64.2428 1.55809L64.6194 0.44519H49.7072Z"
              fill="url(#paint1_linear_1_8)"/>
    </g>
    <defs>
        <linearGradient id="paint0_linear_1_8" x1="115.306" y1="0.445348" x2="115.306" y2="45.7034"
                        gradientUnits="userSpaceOnUse">
            <stop stop-color="#E23836"/>
            <stop offset="1" stop-color="#8C2322"/>
        </linearGradient>
        <linearGradient id="paint1_linear_1_8" x1="46.544" y1="0.44519" x2="46.544" y2="44.5162"
                        gradientUnits="userSpaceOnUse">
            <stop stop-color="#1D4677"/>
            <stop offset="1" stop-color="#367ABE"/>
        </linearGradient>
        <clipPath id="clip0_1_8">
            <rect width="157.406" height="46" fill="white"/>
        </clipPath>
    </defs>
</svg>
